# xmcd
#
# Track frame offsets:
#	150
#	15747
#	29507
#	44972
#	55120
#	75770
#	88050
#	105220
#	120915
#	135475
#
# Disc length: 1980 seconds
#
# Revision: 4
# Processed by: cddbd v1.5.2PL0 Copyright (c) Steve Scherf et al.
# Submitted via: audiograbber 1.83.01
#
DISCID=7007ba0a
DTITLE=Various Artist - A Tejano Country Christmas
DYEAR=1994
DGENRE=Texmex
TTITLE0=Freddy Fender - Blanca Navidad (White Christmas)
TTITLE1=Rick Orozco - When It's Christmas Time In Texas
TTITLE2=Joel Nava - Adeste Fideles (O Come All Ye Faithful)
TTITLE3=Flaco Jimenez with Freddy Fender - Frosty The Snowman
TTITLE4=La Diferenzia - Amigos Del Mundo (Happy Christmas)
TTITLE5=Rick Orozco - Jingle Bell Rock
TTITLE6=Joel Nava - Mama's Boy
TTITLE7=Freddy Fender - Please Come Home For Christmas
TTITLE8=Flaco Jimenez, Freddy Fender, Joel Nava, Rick Orozco, Ricardo Castillon
TTITLE8=Jingle Bells
TTITLE9=La Diferenzia - Noche De Paz (Silent Night)
EXTD=
EXTT0=
EXTT1=
EXTT2=
EXTT3=
EXTT4=
EXTT5=
EXTT6=
EXTT7=
EXTT8=
EXTT9=
PLAYORDER=
